<svg width="770px" height="658px" viewBox="0 0 492.8 492.8" xmlns="http://www.w3.org/2000/svg" xmlns:xlink="http://www.w3.org/1999/xlink" aria-hidden="true" role="img" class="iconify iconify--fxemoji" preserveAspectRatio="xMidYMid meet"><path fill="#BC7535" d="M310.817 68.036c-10.087 0 -19.999 0.482 -29.664 1.418H168.745v0.19l-0.403 0.013c-1.28 0.038 -2.557 0.081 -3.831 0.133 -0.505 0.021 -1.008 0.048 -1.512 0.072 -0.901 0.041 -1.803 0.083 -2.7 0.132 -0.578 0.032 -1.152 0.07 -1.729 0.105 -0.82 0.05 -1.64 0.098 -2.456 0.155 -0.603 0.041 -1.205 0.089 -1.807 0.134 -0.786 0.059 -1.572 0.117 -2.355 0.182 -0.616 0.051 -1.229 0.107 -1.843 0.162 -0.763 0.068 -1.526 0.136 -2.285 0.21 -0.623 0.061 -1.244 0.125 -1.865 0.189 -0.748 0.077 -1.495 0.156 -2.24 0.238a322.882 322.882 0 0 0 -4.073 0.482 287.401 287.401 0 0 0 -8.056 1.13c-0.606 0.094 -1.213 0.189 -1.817 0.287 -0.726 0.117 -1.448 0.239 -2.169 0.362 -0.594 0.101 -1.189 0.202 -1.78 0.307 -0.729 0.129 -1.454 0.264 -2.179 0.398 -0.579 0.108 -1.159 0.214 -1.735 0.324 -0.736 0.141 -1.468 0.29 -2.199 0.437 -0.558 0.113 -1.117 0.222 -1.674 0.339 -0.761 0.159 -1.518 0.324 -2.274 0.489 -0.519 0.113 -1.04 0.223 -1.557 0.339 -0.838 0.188 -1.669 0.384 -2.502 0.579 -0.428 0.101 -0.86 0.197 -1.286 0.3a242.078 242.078 0 0 0 -3.726 0.927l-0.213 0.057c-1.174 0.303 -2.343 0.614 -3.504 0.934 -0.417 0.115 -0.828 0.235 -1.244 0.351 -0.808 0.227 -1.616 0.453 -2.417 0.687 -0.483 0.141 -0.961 0.288 -1.441 0.432 -0.725 0.217 -1.45 0.433 -2.168 0.656 -0.51 0.159 -1.016 0.322 -1.524 0.484 -0.681 0.217 -1.363 0.434 -2.04 0.656 -0.519 0.17 -1.033 0.346 -1.549 0.52 -0.658 0.222 -1.316 0.445 -1.968 0.672 -0.519 0.181 -1.034 0.365 -1.549 0.549 -0.641 0.229 -1.281 0.459 -1.916 0.693a223.435 223.435 0 0 0 -4.942 1.895 196.764 196.764 0 0 0 -6.621 2.78c-0.601 0.266 -1.196 0.535 -1.791 0.806 -0.478 0.218 -0.957 0.435 -1.431 0.655 -0.597 0.278 -1.188 0.56 -1.779 0.843 -0.463 0.221 -0.927 0.442 -1.386 0.667 -0.601 0.295 -1.194 0.594 -1.789 0.894 -0.438 0.22 -0.879 0.44 -1.313 0.663 -0.618 0.319 -1.228 0.643 -1.838 0.967 -0.4 0.213 -0.805 0.423 -1.202 0.637 -0.673 0.365 -1.337 0.736 -2 1.108 -0.325 0.182 -0.655 0.361 -0.978 0.545a150.167 150.167 0 0 0 -2.915 1.701C23.204 118.05 4.829 144.452 3.437 173.234l-0.012 0.205a72.089 72.089 0 0 0 -0.083 3.324c0 26.891 15.906 50.69 40.197 61.103v134.655c0 28.941 23.546 52.488 52.488 52.488h163.022c1.007 0 2.005 -0.036 2.998 -0.091 0.235 -0.013 0.468 -0.037 0.702 -0.054 0.787 -0.055 1.571 -0.125 2.349 -0.215 0.203 -0.024 0.405 -0.051 0.607 -0.077a51.143 51.143 0 0 0 2.509 -0.381c0.118 -0.021 0.237 -0.041 0.354 -0.064a51.5 51.5 0 0 0 2.847 -0.604h120.912c28.941 0 52.488 -23.546 52.488 -52.487V236.379c24.29 -10.412 40.197 -34.211 40.197 -61.102 -0.001 -65.147 -68.377 -107.241 -174.196 -107.241z"/><path fill="#FCDEA2" d="M342.941 176.762c0 -61.362 -67.158 -98.447 -165.403 -98.447 -96.355 0 -162.8 43.284 -165.32 95.375l-0.009 0.153a63.983 63.983 0 0 0 -0.074 2.919c0 25.768 16.888 47.584 40.197 55.005v140.753c0 24.132 19.563 43.695 43.695 43.695h163.022c24.132 0 43.695 -19.563 43.695 -43.695V231.767c23.309 -7.421 40.197 -29.238 40.197 -55.005z"/></svg>
